<mxfile host="app.diagrams.net" agent="Mozilla/5.0 (Windows NT 10.0; Win64; x64) AppleWebKit/537.36 (KHTML, like Gecko) Chrome/134.0.0.0 Safari/537.36 Edg/134.0.0.0" version="26.2.2" pages="3">
  <diagram id="NvjmD33tDzZ0oH_J858b" name="Solution">
    <mxGraphModel dx="2255" dy="840" grid="1" gridSize="10" guides="1" tooltips="1" connect="1" arrows="1" fold="1" page="1" pageScale="1" pageWidth="827" pageHeight="1169" math="0" shadow="0">
      <root>
        <mxCell id="0" />
        <mxCell id="1" parent="0" />
        <mxCell id="EGghJuv-b2jkYaArtv-v-29" style="edgeStyle=orthogonalEdgeStyle;rounded=0;orthogonalLoop=1;jettySize=auto;html=1;entryX=0.5;entryY=0;entryDx=0;entryDy=0;" parent="1" source="EGghJuv-b2jkYaArtv-v-1" target="EGghJuv-b2jkYaArtv-v-25" edge="1">
          <mxGeometry relative="1" as="geometry" />
        </mxCell>
        <mxCell id="EGghJuv-b2jkYaArtv-v-1" value="service-customer&lt;div&gt;:8181&lt;/div&gt;" style="rounded=1;whiteSpace=wrap;html=1;fillColor=#f8cecc;strokeColor=#b85450;" parent="1" vertex="1">
          <mxGeometry x="390" y="180" width="170" height="83" as="geometry" />
        </mxCell>
        <mxCell id="EGghJuv-b2jkYaArtv-v-30" style="edgeStyle=orthogonalEdgeStyle;rounded=0;orthogonalLoop=1;jettySize=auto;html=1;entryX=0.5;entryY=1;entryDx=0;entryDy=0;" parent="1" source="EGghJuv-b2jkYaArtv-v-2" target="EGghJuv-b2jkYaArtv-v-25" edge="1">
          <mxGeometry relative="1" as="geometry" />
        </mxCell>
        <mxCell id="EGghJuv-b2jkYaArtv-v-2" value="service-product&lt;div&gt;:8383&lt;/div&gt;" style="rounded=1;whiteSpace=wrap;html=1;fillColor=#f8cecc;strokeColor=#b85450;" parent="1" vertex="1">
          <mxGeometry x="400" y="370" width="160" height="82" as="geometry" />
        </mxCell>
        <mxCell id="EGghJuv-b2jkYaArtv-v-36" style="edgeStyle=orthogonalEdgeStyle;rounded=0;orthogonalLoop=1;jettySize=auto;html=1;" parent="1" source="EGghJuv-b2jkYaArtv-v-4" target="EGghJuv-b2jkYaArtv-v-10" edge="1">
          <mxGeometry relative="1" as="geometry" />
        </mxCell>
        <mxCell id="EGghJuv-b2jkYaArtv-v-37" value="configurations" style="edgeLabel;html=1;align=center;verticalAlign=middle;resizable=0;points=[];" parent="EGghJuv-b2jkYaArtv-v-36" vertex="1" connectable="0">
          <mxGeometry x="-0.3148" y="-1" relative="1" as="geometry">
            <mxPoint as="offset" />
          </mxGeometry>
        </mxCell>
        <mxCell id="EGghJuv-b2jkYaArtv-v-4" value="config-server-bc&lt;div&gt;:8888&lt;/div&gt;" style="rounded=1;whiteSpace=wrap;html=1;fillColor=#d5e8d4;strokeColor=#82b366;" parent="1" vertex="1">
          <mxGeometry x="510" y="140" width="110" height="60" as="geometry" />
        </mxCell>
        <mxCell id="EGghJuv-b2jkYaArtv-v-10" value="GitHub" style="ellipse;shape=cloud;whiteSpace=wrap;html=1;fillColor=#647687;fontColor=#ffffff;strokeColor=#314354;" parent="1" vertex="1">
          <mxGeometry x="660" y="20" width="120" height="80" as="geometry" />
        </mxCell>
        <mxCell id="EGghJuv-b2jkYaArtv-v-25" value="discovery-service&lt;div&gt;:8761&lt;/div&gt;" style="rounded=1;whiteSpace=wrap;html=1;fillColor=#e1d5e7;strokeColor=#9673a6;" parent="1" vertex="1">
          <mxGeometry x="230" y="280" width="120" height="60" as="geometry" />
        </mxCell>
        <mxCell id="EGghJuv-b2jkYaArtv-v-31" value="MongoDB" style="shape=cylinder3;whiteSpace=wrap;html=1;boundedLbl=1;backgroundOutline=1;size=15;fillColor=#dae8fc;strokeColor=#6c8ebf;" parent="1" vertex="1">
          <mxGeometry x="680" y="200" width="60" height="80" as="geometry" />
        </mxCell>
        <mxCell id="EGghJuv-b2jkYaArtv-v-32" style="edgeStyle=orthogonalEdgeStyle;rounded=0;orthogonalLoop=1;jettySize=auto;html=1;entryX=-0.056;entryY=0.415;entryDx=0;entryDy=0;entryPerimeter=0;" parent="1" source="EGghJuv-b2jkYaArtv-v-1" target="EGghJuv-b2jkYaArtv-v-31" edge="1">
          <mxGeometry relative="1" as="geometry" />
        </mxCell>
        <mxCell id="EGghJuv-b2jkYaArtv-v-33" value="MongoDB" style="shape=cylinder3;whiteSpace=wrap;html=1;boundedLbl=1;backgroundOutline=1;size=15;fillColor=#dae8fc;strokeColor=#6c8ebf;" parent="1" vertex="1">
          <mxGeometry x="690" y="372" width="60" height="80" as="geometry" />
        </mxCell>
        <mxCell id="EGghJuv-b2jkYaArtv-v-34" style="edgeStyle=orthogonalEdgeStyle;rounded=0;orthogonalLoop=1;jettySize=auto;html=1;entryX=0;entryY=0.5;entryDx=0;entryDy=0;entryPerimeter=0;" parent="1" source="EGghJuv-b2jkYaArtv-v-2" target="EGghJuv-b2jkYaArtv-v-33" edge="1">
          <mxGeometry relative="1" as="geometry" />
        </mxCell>
        <mxCell id="EGghJuv-b2jkYaArtv-v-35" value="config-server-bc&lt;div&gt;:8888&lt;/div&gt;" style="rounded=1;whiteSpace=wrap;html=1;fillColor=#d5e8d4;strokeColor=#82b366;" parent="1" vertex="1">
          <mxGeometry x="520" y="440" width="110" height="60" as="geometry" />
        </mxCell>
        <mxCell id="EGghJuv-b2jkYaArtv-v-38" value="GitHub" style="ellipse;shape=cloud;whiteSpace=wrap;html=1;fillColor=#647687;fontColor=#ffffff;strokeColor=#314354;" parent="1" vertex="1">
          <mxGeometry x="650" y="545" width="120" height="80" as="geometry" />
        </mxCell>
        <mxCell id="EGghJuv-b2jkYaArtv-v-39" style="edgeStyle=orthogonalEdgeStyle;rounded=0;orthogonalLoop=1;jettySize=auto;html=1;entryX=0.4;entryY=0.1;entryDx=0;entryDy=0;entryPerimeter=0;" parent="1" source="EGghJuv-b2jkYaArtv-v-35" target="EGghJuv-b2jkYaArtv-v-38" edge="1">
          <mxGeometry relative="1" as="geometry" />
        </mxCell>
        <mxCell id="EGghJuv-b2jkYaArtv-v-40" value="configurations" style="edgeLabel;html=1;align=center;verticalAlign=middle;resizable=0;points=[];" parent="EGghJuv-b2jkYaArtv-v-39" vertex="1" connectable="0">
          <mxGeometry x="0.2567" y="-2" relative="1" as="geometry">
            <mxPoint as="offset" />
          </mxGeometry>
        </mxCell>
        <mxCell id="EGghJuv-b2jkYaArtv-v-44" value="LEYENDA" style="swimlane;whiteSpace=wrap;html=1;" parent="1" vertex="1">
          <mxGeometry x="-60" y="452" width="350" height="200" as="geometry" />
        </mxCell>
        <mxCell id="EGghJuv-b2jkYaArtv-v-46" value="" style="rounded=1;whiteSpace=wrap;html=1;fillColor=#f8cecc;strokeColor=#b85450;" parent="EGghJuv-b2jkYaArtv-v-44" vertex="1">
          <mxGeometry x="10" y="44" width="40" height="20" as="geometry" />
        </mxCell>
        <mxCell id="EGghJuv-b2jkYaArtv-v-47" value="Microservicios API REST" style="text;html=1;align=left;verticalAlign=middle;whiteSpace=wrap;rounded=0;" parent="EGghJuv-b2jkYaArtv-v-44" vertex="1">
          <mxGeometry x="60" y="40" width="140" height="30" as="geometry" />
        </mxCell>
        <mxCell id="EGghJuv-b2jkYaArtv-v-48" value="" style="rounded=1;whiteSpace=wrap;html=1;fillColor=#d5e8d4;strokeColor=#82b366;" parent="EGghJuv-b2jkYaArtv-v-44" vertex="1">
          <mxGeometry x="10" y="74" width="40" height="20" as="geometry" />
        </mxCell>
        <mxCell id="EGghJuv-b2jkYaArtv-v-49" value="Servicio de configuración (spring-cloud-config-server)" style="text;html=1;align=left;verticalAlign=middle;whiteSpace=wrap;rounded=0;" parent="EGghJuv-b2jkYaArtv-v-44" vertex="1">
          <mxGeometry x="60" y="70" width="290" height="30" as="geometry" />
        </mxCell>
        <mxCell id="EGghJuv-b2jkYaArtv-v-53" value="" style="rounded=1;whiteSpace=wrap;html=1;fillColor=#dae8fc;strokeColor=#6c8ebf;" parent="EGghJuv-b2jkYaArtv-v-44" vertex="1">
          <mxGeometry x="10" y="104" width="40" height="20" as="geometry" />
        </mxCell>
        <mxCell id="EGghJuv-b2jkYaArtv-v-54" value="Colección MongoDB" style="text;html=1;align=left;verticalAlign=middle;whiteSpace=wrap;rounded=0;" parent="EGghJuv-b2jkYaArtv-v-44" vertex="1">
          <mxGeometry x="60" y="100" width="140" height="30" as="geometry" />
        </mxCell>
        <mxCell id="EGghJuv-b2jkYaArtv-v-58" value="" style="rounded=1;whiteSpace=wrap;html=1;fillColor=#647687;strokeColor=#314354;fontColor=#ffffff;" parent="EGghJuv-b2jkYaArtv-v-44" vertex="1">
          <mxGeometry x="10" y="134" width="40" height="20" as="geometry" />
        </mxCell>
        <mxCell id="EGghJuv-b2jkYaArtv-v-59" value="Repositorio GitHub" style="text;html=1;align=left;verticalAlign=middle;whiteSpace=wrap;rounded=0;" parent="EGghJuv-b2jkYaArtv-v-44" vertex="1">
          <mxGeometry x="60" y="130" width="140" height="30" as="geometry" />
        </mxCell>
        <mxCell id="EGghJuv-b2jkYaArtv-v-60" value="" style="rounded=1;whiteSpace=wrap;html=1;fillColor=#e1d5e7;strokeColor=#9673a6;" parent="EGghJuv-b2jkYaArtv-v-44" vertex="1">
          <mxGeometry x="10" y="164" width="40" height="20" as="geometry" />
        </mxCell>
        <mxCell id="EGghJuv-b2jkYaArtv-v-61" value="Servicio localización (spring-cloud-starter-netflix-eureka-server)" style="text;html=1;align=left;verticalAlign=middle;whiteSpace=wrap;rounded=0;" parent="EGghJuv-b2jkYaArtv-v-44" vertex="1">
          <mxGeometry x="60" y="160" width="290" height="30" as="geometry" />
        </mxCell>
      </root>
    </mxGraphModel>
  </diagram>
  <diagram id="J6Zt1OZbu22toseDx72a" name="service-customer">
    <mxGraphModel dx="1142" dy="672" grid="1" gridSize="10" guides="1" tooltips="1" connect="1" arrows="1" fold="1" page="1" pageScale="1" pageWidth="827" pageHeight="1169" math="0" shadow="0">
      <root>
        <mxCell id="0" />
        <mxCell id="1" parent="0" />
        <mxCell id="7jKar9Oq4WMOaTZj31np-1" value="Api" style="shape=umlLifeline;perimeter=lifelinePerimeter;whiteSpace=wrap;html=1;container=1;dropTarget=0;collapsible=0;recursiveResize=0;outlineConnect=0;portConstraint=eastwest;newEdgeStyle={&quot;curved&quot;:0,&quot;rounded&quot;:0};" vertex="1" parent="1">
          <mxGeometry x="240" y="40" width="100" height="1070" as="geometry" />
        </mxCell>
        <mxCell id="7jKar9Oq4WMOaTZj31np-12" value="" style="html=1;points=[[0,0,0,0,5],[0,1,0,0,-5],[1,0,0,0,5],[1,1,0,0,-5]];perimeter=orthogonalPerimeter;outlineConnect=0;targetShapes=umlLifeline;portConstraint=eastwest;newEdgeStyle={&quot;curved&quot;:0,&quot;rounded&quot;:0};" vertex="1" parent="7jKar9Oq4WMOaTZj31np-1">
          <mxGeometry x="45" y="70" width="10" height="170" as="geometry" />
        </mxCell>
        <mxCell id="7jKar9Oq4WMOaTZj31np-57" value="" style="html=1;points=[[0,0,0,0,5],[0,1,0,0,-5],[1,0,0,0,5],[1,1,0,0,-5]];perimeter=orthogonalPerimeter;outlineConnect=0;targetShapes=umlLifeline;portConstraint=eastwest;newEdgeStyle={&quot;curved&quot;:0,&quot;rounded&quot;:0};" vertex="1" parent="7jKar9Oq4WMOaTZj31np-1">
          <mxGeometry x="45" y="260" width="10" height="130" as="geometry" />
        </mxCell>
        <mxCell id="7jKar9Oq4WMOaTZj31np-60" value="" style="html=1;points=[[0,0,0,0,5],[0,1,0,0,-5],[1,0,0,0,5],[1,1,0,0,-5]];perimeter=orthogonalPerimeter;outlineConnect=0;targetShapes=umlLifeline;portConstraint=eastwest;newEdgeStyle={&quot;curved&quot;:0,&quot;rounded&quot;:0};" vertex="1" parent="7jKar9Oq4WMOaTZj31np-1">
          <mxGeometry x="45" y="430" width="10" height="220" as="geometry" />
        </mxCell>
        <mxCell id="7jKar9Oq4WMOaTZj31np-87" value="" style="html=1;points=[[0,0,0,0,5],[0,1,0,0,-5],[1,0,0,0,5],[1,1,0,0,-5]];perimeter=orthogonalPerimeter;outlineConnect=0;targetShapes=umlLifeline;portConstraint=eastwest;newEdgeStyle={&quot;curved&quot;:0,&quot;rounded&quot;:0};" vertex="1" parent="7jKar9Oq4WMOaTZj31np-1">
          <mxGeometry x="45" y="700" width="10" height="220" as="geometry" />
        </mxCell>
        <mxCell id="7jKar9Oq4WMOaTZj31np-2" value="Data Base" style="shape=umlLifeline;perimeter=lifelinePerimeter;whiteSpace=wrap;html=1;container=1;dropTarget=0;collapsible=0;recursiveResize=0;outlineConnect=0;portConstraint=eastwest;newEdgeStyle={&quot;curved&quot;:0,&quot;rounded&quot;:0};" vertex="1" parent="1">
          <mxGeometry x="663" y="40" width="100" height="1070" as="geometry" />
        </mxCell>
        <mxCell id="7jKar9Oq4WMOaTZj31np-3" value="Repository" style="shape=umlLifeline;perimeter=lifelinePerimeter;whiteSpace=wrap;html=1;container=1;dropTarget=0;collapsible=0;recursiveResize=0;outlineConnect=0;portConstraint=eastwest;newEdgeStyle={&quot;curved&quot;:0,&quot;rounded&quot;:0};" vertex="1" parent="1">
          <mxGeometry x="530" y="40" width="100" height="1070" as="geometry" />
        </mxCell>
        <mxCell id="7jKar9Oq4WMOaTZj31np-20" value="" style="html=1;points=[[0,0,0,0,5],[0,1,0,0,-5],[1,0,0,0,5],[1,1,0,0,-5]];perimeter=orthogonalPerimeter;outlineConnect=0;targetShapes=umlLifeline;portConstraint=eastwest;newEdgeStyle={&quot;curved&quot;:0,&quot;rounded&quot;:0};" vertex="1" parent="7jKar9Oq4WMOaTZj31np-3">
          <mxGeometry x="45" y="70" width="10" height="170" as="geometry" />
        </mxCell>
        <mxCell id="7jKar9Oq4WMOaTZj31np-59" value="" style="html=1;points=[[0,0,0,0,5],[0,1,0,0,-5],[1,0,0,0,5],[1,1,0,0,-5]];perimeter=orthogonalPerimeter;outlineConnect=0;targetShapes=umlLifeline;portConstraint=eastwest;newEdgeStyle={&quot;curved&quot;:0,&quot;rounded&quot;:0};" vertex="1" parent="7jKar9Oq4WMOaTZj31np-3">
          <mxGeometry x="45" y="260" width="10" height="130" as="geometry" />
        </mxCell>
        <mxCell id="7jKar9Oq4WMOaTZj31np-62" value="" style="html=1;points=[[0,0,0,0,5],[0,1,0,0,-5],[1,0,0,0,5],[1,1,0,0,-5]];perimeter=orthogonalPerimeter;outlineConnect=0;targetShapes=umlLifeline;portConstraint=eastwest;newEdgeStyle={&quot;curved&quot;:0,&quot;rounded&quot;:0};" vertex="1" parent="7jKar9Oq4WMOaTZj31np-3">
          <mxGeometry x="45" y="430" width="10" height="220" as="geometry" />
        </mxCell>
        <mxCell id="7jKar9Oq4WMOaTZj31np-89" value="" style="html=1;points=[[0,0,0,0,5],[0,1,0,0,-5],[1,0,0,0,5],[1,1,0,0,-5]];perimeter=orthogonalPerimeter;outlineConnect=0;targetShapes=umlLifeline;portConstraint=eastwest;newEdgeStyle={&quot;curved&quot;:0,&quot;rounded&quot;:0};" vertex="1" parent="7jKar9Oq4WMOaTZj31np-3">
          <mxGeometry x="45" y="700" width="10" height="220" as="geometry" />
        </mxCell>
        <mxCell id="7jKar9Oq4WMOaTZj31np-4" value="Service" style="shape=umlLifeline;perimeter=lifelinePerimeter;whiteSpace=wrap;html=1;container=1;dropTarget=0;collapsible=0;recursiveResize=0;outlineConnect=0;portConstraint=eastwest;newEdgeStyle={&quot;curved&quot;:0,&quot;rounded&quot;:0};" vertex="1" parent="1">
          <mxGeometry x="390" y="40" width="100" height="1070" as="geometry" />
        </mxCell>
        <mxCell id="7jKar9Oq4WMOaTZj31np-18" value="" style="html=1;points=[[0,0,0,0,5],[0,1,0,0,-5],[1,0,0,0,5],[1,1,0,0,-5]];perimeter=orthogonalPerimeter;outlineConnect=0;targetShapes=umlLifeline;portConstraint=eastwest;newEdgeStyle={&quot;curved&quot;:0,&quot;rounded&quot;:0};" vertex="1" parent="7jKar9Oq4WMOaTZj31np-4">
          <mxGeometry x="45" y="70" width="10" height="170" as="geometry" />
        </mxCell>
        <mxCell id="7jKar9Oq4WMOaTZj31np-58" value="" style="html=1;points=[[0,0,0,0,5],[0,1,0,0,-5],[1,0,0,0,5],[1,1,0,0,-5]];perimeter=orthogonalPerimeter;outlineConnect=0;targetShapes=umlLifeline;portConstraint=eastwest;newEdgeStyle={&quot;curved&quot;:0,&quot;rounded&quot;:0};" vertex="1" parent="7jKar9Oq4WMOaTZj31np-4">
          <mxGeometry x="45" y="260" width="10" height="130" as="geometry" />
        </mxCell>
        <mxCell id="7jKar9Oq4WMOaTZj31np-61" value="" style="html=1;points=[[0,0,0,0,5],[0,1,0,0,-5],[1,0,0,0,5],[1,1,0,0,-5]];perimeter=orthogonalPerimeter;outlineConnect=0;targetShapes=umlLifeline;portConstraint=eastwest;newEdgeStyle={&quot;curved&quot;:0,&quot;rounded&quot;:0};" vertex="1" parent="7jKar9Oq4WMOaTZj31np-4">
          <mxGeometry x="45" y="430" width="10" height="220" as="geometry" />
        </mxCell>
        <mxCell id="7jKar9Oq4WMOaTZj31np-65" style="edgeStyle=orthogonalEdgeStyle;rounded=0;orthogonalLoop=1;jettySize=auto;html=1;curved=0;" edge="1" parent="7jKar9Oq4WMOaTZj31np-4" source="7jKar9Oq4WMOaTZj31np-61" target="7jKar9Oq4WMOaTZj31np-61">
          <mxGeometry relative="1" as="geometry">
            <Array as="points">
              <mxPoint x="10" y="540" />
            </Array>
          </mxGeometry>
        </mxCell>
        <mxCell id="7jKar9Oq4WMOaTZj31np-88" value="" style="html=1;points=[[0,0,0,0,5],[0,1,0,0,-5],[1,0,0,0,5],[1,1,0,0,-5]];perimeter=orthogonalPerimeter;outlineConnect=0;targetShapes=umlLifeline;portConstraint=eastwest;newEdgeStyle={&quot;curved&quot;:0,&quot;rounded&quot;:0};" vertex="1" parent="7jKar9Oq4WMOaTZj31np-4">
          <mxGeometry x="45" y="700" width="10" height="220" as="geometry" />
        </mxCell>
        <mxCell id="7jKar9Oq4WMOaTZj31np-10" value="ApiClient" style="shape=umlLifeline;perimeter=lifelinePerimeter;whiteSpace=wrap;html=1;container=1;dropTarget=0;collapsible=0;recursiveResize=0;outlineConnect=0;portConstraint=eastwest;newEdgeStyle={&quot;curved&quot;:0,&quot;rounded&quot;:0};" vertex="1" parent="1">
          <mxGeometry x="80" y="40" width="100" height="1070" as="geometry" />
        </mxCell>
        <mxCell id="7jKar9Oq4WMOaTZj31np-13" value="POST:&amp;nbsp;&lt;div&gt;&lt;span style=&quot;background-color: light-dark(#ffffff, var(--ge-dark-color, #121212)); color: light-dark(rgb(0, 0, 0), rgb(255, 255, 255));&quot;&gt;api/customers&lt;/span&gt;&lt;/div&gt;" style="html=1;verticalAlign=bottom;startArrow=oval;endArrow=block;startSize=8;curved=0;rounded=0;entryX=0;entryY=0;entryDx=0;entryDy=5;" edge="1" target="7jKar9Oq4WMOaTZj31np-12" parent="1">
          <mxGeometry x="-0.001" relative="1" as="geometry">
            <mxPoint x="130" y="115" as="sourcePoint" />
            <mxPoint as="offset" />
          </mxGeometry>
        </mxCell>
        <mxCell id="7jKar9Oq4WMOaTZj31np-14" value="&lt;font style=&quot;font-size: 10px;&quot;&gt;- customerRequest&lt;/font&gt;" style="text;strokeColor=none;fillColor=none;align=left;verticalAlign=top;spacingLeft=4;spacingRight=4;overflow=hidden;rotatable=0;points=[[0,0.5],[1,0.5]];portConstraint=eastwest;whiteSpace=wrap;html=1;" vertex="1" parent="1">
          <mxGeometry x="150" y="116" width="99" height="28" as="geometry" />
        </mxCell>
        <mxCell id="7jKar9Oq4WMOaTZj31np-17" value="createCustomer" style="html=1;verticalAlign=bottom;endArrow=block;curved=0;rounded=0;" edge="1" parent="1" target="7jKar9Oq4WMOaTZj31np-18">
          <mxGeometry width="80" relative="1" as="geometry">
            <mxPoint x="300" y="129.68" as="sourcePoint" />
            <mxPoint x="380" y="129.68" as="targetPoint" />
          </mxGeometry>
        </mxCell>
        <mxCell id="7jKar9Oq4WMOaTZj31np-19" value="&lt;font style=&quot;font-size: 10px;&quot;&gt;- customerRequest&lt;/font&gt;" style="text;strokeColor=none;fillColor=none;align=left;verticalAlign=top;spacingLeft=4;spacingRight=4;overflow=hidden;rotatable=0;points=[[0,0.5],[1,0.5]];portConstraint=eastwest;whiteSpace=wrap;html=1;" vertex="1" parent="1">
          <mxGeometry x="314.5" y="126" width="99" height="28" as="geometry" />
        </mxCell>
        <mxCell id="7jKar9Oq4WMOaTZj31np-21" value="save" style="html=1;verticalAlign=bottom;endArrow=block;curved=0;rounded=0;" edge="1" parent="1">
          <mxGeometry width="80" relative="1" as="geometry">
            <mxPoint x="450" y="139.68" as="sourcePoint" />
            <mxPoint x="570" y="140" as="targetPoint" />
          </mxGeometry>
        </mxCell>
        <mxCell id="7jKar9Oq4WMOaTZj31np-22" value="save" style="html=1;verticalAlign=bottom;endArrow=block;curved=0;rounded=0;" edge="1" parent="1">
          <mxGeometry width="80" relative="1" as="geometry">
            <mxPoint x="589" y="144" as="sourcePoint" />
            <mxPoint x="709" y="144.32" as="targetPoint" />
          </mxGeometry>
        </mxCell>
        <mxCell id="7jKar9Oq4WMOaTZj31np-29" value="Success (200)" style="html=1;verticalAlign=bottom;endArrow=open;dashed=1;endSize=8;curved=0;rounded=0;" edge="1" parent="1">
          <mxGeometry relative="1" as="geometry">
            <mxPoint x="712.5" y="179.9999999999999" as="sourcePoint" />
            <mxPoint x="129.94444444444457" y="179.9999999999999" as="targetPoint" />
          </mxGeometry>
        </mxCell>
        <mxCell id="7jKar9Oq4WMOaTZj31np-32" value="Error (404)" style="html=1;verticalAlign=bottom;endArrow=open;dashed=1;endSize=8;curved=0;rounded=0;" edge="1" parent="1">
          <mxGeometry relative="1" as="geometry">
            <mxPoint x="712.56" y="229.9999999999999" as="sourcePoint" />
            <mxPoint x="130.00444444444457" y="229.9999999999999" as="targetPoint" />
          </mxGeometry>
        </mxCell>
        <mxCell id="7jKar9Oq4WMOaTZj31np-34" value="GET:&amp;nbsp;&lt;div&gt;api/customers&lt;/div&gt;" style="html=1;verticalAlign=bottom;startArrow=oval;endArrow=block;startSize=8;curved=0;rounded=0;entryX=0;entryY=0;entryDx=0;entryDy=5;" edge="1" parent="1">
          <mxGeometry x="-0.001" relative="1" as="geometry">
            <mxPoint x="130" y="340" as="sourcePoint" />
            <mxPoint x="285" y="340" as="targetPoint" />
            <mxPoint as="offset" />
          </mxGeometry>
        </mxCell>
        <mxCell id="7jKar9Oq4WMOaTZj31np-36" value="getCustomers" style="html=1;verticalAlign=bottom;endArrow=block;curved=0;rounded=0;" edge="1" parent="1">
          <mxGeometry width="80" relative="1" as="geometry">
            <mxPoint x="300" y="354.68" as="sourcePoint" />
            <mxPoint x="435" y="355" as="targetPoint" />
          </mxGeometry>
        </mxCell>
        <mxCell id="7jKar9Oq4WMOaTZj31np-37" value="&lt;font style=&quot;font-size: 10px;&quot;&gt;- customerRequest&lt;/font&gt;" style="text;strokeColor=none;fillColor=none;align=left;verticalAlign=top;spacingLeft=4;spacingRight=4;overflow=hidden;rotatable=0;points=[[0,0.5],[1,0.5]];portConstraint=eastwest;whiteSpace=wrap;html=1;" vertex="1" parent="1">
          <mxGeometry x="314.5" y="351" width="99" height="28" as="geometry" />
        </mxCell>
        <mxCell id="7jKar9Oq4WMOaTZj31np-38" value="findAll" style="html=1;verticalAlign=bottom;endArrow=block;curved=0;rounded=0;" edge="1" parent="1">
          <mxGeometry width="80" relative="1" as="geometry">
            <mxPoint x="450" y="364.68" as="sourcePoint" />
            <mxPoint x="570" y="365" as="targetPoint" />
          </mxGeometry>
        </mxCell>
        <mxCell id="7jKar9Oq4WMOaTZj31np-39" value="findAll" style="html=1;verticalAlign=bottom;endArrow=block;curved=0;rounded=0;" edge="1" parent="1">
          <mxGeometry width="80" relative="1" as="geometry">
            <mxPoint x="589" y="369" as="sourcePoint" />
            <mxPoint x="709" y="369.32" as="targetPoint" />
          </mxGeometry>
        </mxCell>
        <mxCell id="7jKar9Oq4WMOaTZj31np-40" value="&lt;font style=&quot;font-size: 10px;&quot;&gt;- customer (active)&lt;/font&gt;" style="text;strokeColor=none;fillColor=none;align=left;verticalAlign=top;spacingLeft=4;spacingRight=4;overflow=hidden;rotatable=0;points=[[0,0.5],[1,0.5]];portConstraint=eastwest;whiteSpace=wrap;html=1;" vertex="1" parent="1">
          <mxGeometry x="460" y="136" width="99" height="28" as="geometry" />
        </mxCell>
        <mxCell id="7jKar9Oq4WMOaTZj31np-41" value="&lt;font style=&quot;font-size: 10px;&quot;&gt;- customer&lt;/font&gt;" style="text;strokeColor=none;fillColor=none;align=left;verticalAlign=top;spacingLeft=4;spacingRight=4;overflow=hidden;rotatable=0;points=[[0,0.5],[1,0.5]];portConstraint=eastwest;whiteSpace=wrap;html=1;" vertex="1" parent="1">
          <mxGeometry x="610" y="136" width="99" height="28" as="geometry" />
        </mxCell>
        <mxCell id="7jKar9Oq4WMOaTZj31np-42" value="Success (200)" style="html=1;verticalAlign=bottom;endArrow=open;dashed=1;endSize=8;curved=0;rounded=0;" edge="1" parent="1">
          <mxGeometry relative="1" as="geometry">
            <mxPoint x="708.94" y="399.9999999999999" as="sourcePoint" />
            <mxPoint x="126.38444444444457" y="399.9999999999999" as="targetPoint" />
          </mxGeometry>
        </mxCell>
        <mxCell id="7jKar9Oq4WMOaTZj31np-44" value="PUT:&amp;nbsp;&lt;div&gt;api/customers/{customerId}&lt;/div&gt;" style="html=1;verticalAlign=bottom;startArrow=oval;endArrow=block;startSize=8;curved=0;rounded=0;entryX=0;entryY=0;entryDx=0;entryDy=5;" edge="1" parent="1">
          <mxGeometry x="-0.001" relative="1" as="geometry">
            <mxPoint x="130" y="510" as="sourcePoint" />
            <mxPoint x="285" y="510" as="targetPoint" />
            <mxPoint as="offset" />
          </mxGeometry>
        </mxCell>
        <mxCell id="7jKar9Oq4WMOaTZj31np-45" value="updateCustomer" style="html=1;verticalAlign=bottom;endArrow=block;curved=0;rounded=0;" edge="1" parent="1">
          <mxGeometry width="80" relative="1" as="geometry">
            <mxPoint x="300" y="524.6800000000001" as="sourcePoint" />
            <mxPoint x="435" y="525" as="targetPoint" />
          </mxGeometry>
        </mxCell>
        <mxCell id="7jKar9Oq4WMOaTZj31np-46" value="&lt;font style=&quot;font-size: 10px;&quot;&gt;- customerRequest&lt;/font&gt;&lt;div&gt;&lt;font style=&quot;font-size: 10px;&quot;&gt;- customerId&lt;/font&gt;&lt;/div&gt;" style="text;strokeColor=none;fillColor=none;align=left;verticalAlign=top;spacingLeft=4;spacingRight=4;overflow=hidden;rotatable=0;points=[[0,0.5],[1,0.5]];portConstraint=eastwest;whiteSpace=wrap;html=1;" vertex="1" parent="1">
          <mxGeometry x="314.5" y="521" width="99" height="39" as="geometry" />
        </mxCell>
        <mxCell id="7jKar9Oq4WMOaTZj31np-47" value="findById" style="html=1;verticalAlign=bottom;endArrow=block;curved=0;rounded=0;" edge="1" parent="1">
          <mxGeometry width="80" relative="1" as="geometry">
            <mxPoint x="450" y="534.6800000000001" as="sourcePoint" />
            <mxPoint x="570" y="535" as="targetPoint" />
          </mxGeometry>
        </mxCell>
        <mxCell id="7jKar9Oq4WMOaTZj31np-48" value="findById" style="html=1;verticalAlign=bottom;endArrow=block;curved=0;rounded=0;" edge="1" parent="1">
          <mxGeometry width="80" relative="1" as="geometry">
            <mxPoint x="589" y="539" as="sourcePoint" />
            <mxPoint x="709" y="539.3199999999999" as="targetPoint" />
          </mxGeometry>
        </mxCell>
        <mxCell id="7jKar9Oq4WMOaTZj31np-49" value="Success (200)" style="html=1;verticalAlign=bottom;endArrow=open;dashed=1;endSize=8;curved=0;rounded=0;" edge="1" parent="1">
          <mxGeometry relative="1" as="geometry">
            <mxPoint x="709.56" y="641.9999999999999" as="sourcePoint" />
            <mxPoint x="127.00444444444457" y="641.9999999999999" as="targetPoint" />
          </mxGeometry>
        </mxCell>
        <mxCell id="7jKar9Oq4WMOaTZj31np-50" value="&lt;font style=&quot;font-size: 10px;&quot;&gt;- customerRequest&lt;/font&gt;&lt;div&gt;&lt;font style=&quot;font-size: 10px;&quot;&gt;- customerId&lt;/font&gt;&lt;/div&gt;" style="text;strokeColor=none;fillColor=none;align=left;verticalAlign=top;spacingLeft=4;spacingRight=4;overflow=hidden;rotatable=0;points=[[0,0.5],[1,0.5]];portConstraint=eastwest;whiteSpace=wrap;html=1;" vertex="1" parent="1">
          <mxGeometry x="150" y="510" width="99" height="40" as="geometry" />
        </mxCell>
        <mxCell id="7jKar9Oq4WMOaTZj31np-51" value="&lt;div&gt;&lt;font style=&quot;font-size: 10px;&quot;&gt;- customerId&lt;/font&gt;&lt;/div&gt;" style="text;strokeColor=none;fillColor=none;align=left;verticalAlign=top;spacingLeft=4;spacingRight=4;overflow=hidden;rotatable=0;points=[[0,0.5],[1,0.5]];portConstraint=eastwest;whiteSpace=wrap;html=1;" vertex="1" parent="1">
          <mxGeometry x="460" y="530" width="99" height="30" as="geometry" />
        </mxCell>
        <mxCell id="7jKar9Oq4WMOaTZj31np-53" value="success" style="html=1;verticalAlign=bottom;endArrow=open;dashed=1;endSize=8;curved=0;rounded=0;" edge="1" parent="1" source="7jKar9Oq4WMOaTZj31np-2">
          <mxGeometry relative="1" as="geometry">
            <mxPoint x="663" y="572" as="sourcePoint" />
            <mxPoint x="583" y="572" as="targetPoint" />
          </mxGeometry>
        </mxCell>
        <mxCell id="7jKar9Oq4WMOaTZj31np-54" value="success" style="html=1;verticalAlign=bottom;endArrow=open;dashed=1;endSize=8;curved=0;rounded=0;" edge="1" parent="1">
          <mxGeometry relative="1" as="geometry">
            <mxPoint x="574.5" y="570" as="sourcePoint" />
            <mxPoint x="444.5" y="570" as="targetPoint" />
          </mxGeometry>
        </mxCell>
        <mxCell id="7jKar9Oq4WMOaTZj31np-66" value="save" style="html=1;verticalAlign=bottom;endArrow=block;curved=0;rounded=0;" edge="1" parent="1">
          <mxGeometry width="80" relative="1" as="geometry">
            <mxPoint x="449.5" y="600.0000000000001" as="sourcePoint" />
            <mxPoint x="569.5" y="600.32" as="targetPoint" />
          </mxGeometry>
        </mxCell>
        <mxCell id="7jKar9Oq4WMOaTZj31np-67" value="&lt;div&gt;&lt;font style=&quot;font-size: 10px;&quot;&gt;- customer&lt;/font&gt;&lt;/div&gt;" style="text;strokeColor=none;fillColor=none;align=left;verticalAlign=top;spacingLeft=4;spacingRight=4;overflow=hidden;rotatable=0;points=[[0,0.5],[1,0.5]];portConstraint=eastwest;whiteSpace=wrap;html=1;" vertex="1" parent="1">
          <mxGeometry x="450" y="600" width="99" height="30" as="geometry" />
        </mxCell>
        <mxCell id="7jKar9Oq4WMOaTZj31np-68" value="save" style="html=1;verticalAlign=bottom;endArrow=block;curved=0;rounded=0;" edge="1" parent="1">
          <mxGeometry width="80" relative="1" as="geometry">
            <mxPoint x="589" y="610.0000000000001" as="sourcePoint" />
            <mxPoint x="709" y="610.32" as="targetPoint" />
          </mxGeometry>
        </mxCell>
        <mxCell id="7jKar9Oq4WMOaTZj31np-71" value="Error(404)" style="html=1;verticalAlign=bottom;endArrow=open;dashed=1;endSize=8;curved=0;rounded=0;" edge="1" parent="1">
          <mxGeometry relative="1" as="geometry">
            <mxPoint x="709" y="679.9999999999999" as="sourcePoint" />
            <mxPoint x="126.44444444444457" y="679.9999999999999" as="targetPoint" />
          </mxGeometry>
        </mxCell>
        <mxCell id="7jKar9Oq4WMOaTZj31np-72" style="edgeStyle=orthogonalEdgeStyle;rounded=0;orthogonalLoop=1;jettySize=auto;html=1;curved=0;" edge="1" parent="1">
          <mxGeometry relative="1" as="geometry">
            <mxPoint x="435" y="830" as="sourcePoint" />
            <mxPoint x="435" y="850" as="targetPoint" />
            <Array as="points">
              <mxPoint x="400" y="840" />
            </Array>
          </mxGeometry>
        </mxCell>
        <mxCell id="7jKar9Oq4WMOaTZj31np-73" value="DELETE:&amp;nbsp;&lt;div&gt;api/customers/{customerId}&lt;/div&gt;" style="html=1;verticalAlign=bottom;startArrow=oval;endArrow=block;startSize=8;curved=0;rounded=0;entryX=0;entryY=0;entryDx=0;entryDy=5;" edge="1" parent="1">
          <mxGeometry x="-0.001" relative="1" as="geometry">
            <mxPoint x="130" y="770" as="sourcePoint" />
            <mxPoint x="285" y="770" as="targetPoint" />
            <mxPoint as="offset" />
          </mxGeometry>
        </mxCell>
        <mxCell id="7jKar9Oq4WMOaTZj31np-74" value="deleteCustomer" style="html=1;verticalAlign=bottom;endArrow=block;curved=0;rounded=0;" edge="1" parent="1">
          <mxGeometry width="80" relative="1" as="geometry">
            <mxPoint x="300" y="784.6800000000001" as="sourcePoint" />
            <mxPoint x="435" y="785" as="targetPoint" />
          </mxGeometry>
        </mxCell>
        <mxCell id="7jKar9Oq4WMOaTZj31np-75" value="&lt;div&gt;&lt;font style=&quot;font-size: 10px;&quot;&gt;- customerId&lt;/font&gt;&lt;/div&gt;" style="text;strokeColor=none;fillColor=none;align=left;verticalAlign=top;spacingLeft=4;spacingRight=4;overflow=hidden;rotatable=0;points=[[0,0.5],[1,0.5]];portConstraint=eastwest;whiteSpace=wrap;html=1;" vertex="1" parent="1">
          <mxGeometry x="314.5" y="781" width="99" height="39" as="geometry" />
        </mxCell>
        <mxCell id="7jKar9Oq4WMOaTZj31np-76" value="findById" style="html=1;verticalAlign=bottom;endArrow=block;curved=0;rounded=0;" edge="1" parent="1">
          <mxGeometry width="80" relative="1" as="geometry">
            <mxPoint x="450" y="794.6800000000001" as="sourcePoint" />
            <mxPoint x="570" y="795" as="targetPoint" />
          </mxGeometry>
        </mxCell>
        <mxCell id="7jKar9Oq4WMOaTZj31np-77" value="findById" style="html=1;verticalAlign=bottom;endArrow=block;curved=0;rounded=0;" edge="1" parent="1">
          <mxGeometry width="80" relative="1" as="geometry">
            <mxPoint x="589" y="799" as="sourcePoint" />
            <mxPoint x="709" y="799.3199999999999" as="targetPoint" />
          </mxGeometry>
        </mxCell>
        <mxCell id="7jKar9Oq4WMOaTZj31np-78" value="Success (200)" style="html=1;verticalAlign=bottom;endArrow=open;dashed=1;endSize=8;curved=0;rounded=0;" edge="1" parent="1">
          <mxGeometry relative="1" as="geometry">
            <mxPoint x="709.56" y="901.9999999999999" as="sourcePoint" />
            <mxPoint x="127.00444444444457" y="901.9999999999999" as="targetPoint" />
          </mxGeometry>
        </mxCell>
        <mxCell id="7jKar9Oq4WMOaTZj31np-79" value="&lt;div&gt;&lt;font style=&quot;font-size: 10px;&quot;&gt;- customerId&lt;/font&gt;&lt;/div&gt;" style="text;strokeColor=none;fillColor=none;align=left;verticalAlign=top;spacingLeft=4;spacingRight=4;overflow=hidden;rotatable=0;points=[[0,0.5],[1,0.5]];portConstraint=eastwest;whiteSpace=wrap;html=1;" vertex="1" parent="1">
          <mxGeometry x="150" y="770" width="99" height="40" as="geometry" />
        </mxCell>
        <mxCell id="7jKar9Oq4WMOaTZj31np-80" value="&lt;div&gt;&lt;font style=&quot;font-size: 10px;&quot;&gt;- customerId&lt;/font&gt;&lt;/div&gt;" style="text;strokeColor=none;fillColor=none;align=left;verticalAlign=top;spacingLeft=4;spacingRight=4;overflow=hidden;rotatable=0;points=[[0,0.5],[1,0.5]];portConstraint=eastwest;whiteSpace=wrap;html=1;" vertex="1" parent="1">
          <mxGeometry x="460" y="790" width="99" height="30" as="geometry" />
        </mxCell>
        <mxCell id="7jKar9Oq4WMOaTZj31np-81" value="success" style="html=1;verticalAlign=bottom;endArrow=open;dashed=1;endSize=8;curved=0;rounded=0;" edge="1" parent="1">
          <mxGeometry relative="1" as="geometry">
            <mxPoint x="713" y="832" as="sourcePoint" />
            <mxPoint x="583" y="832" as="targetPoint" />
          </mxGeometry>
        </mxCell>
        <mxCell id="7jKar9Oq4WMOaTZj31np-82" value="success" style="html=1;verticalAlign=bottom;endArrow=open;dashed=1;endSize=8;curved=0;rounded=0;" edge="1" parent="1">
          <mxGeometry relative="1" as="geometry">
            <mxPoint x="574.5" y="830" as="sourcePoint" />
            <mxPoint x="444.5" y="830" as="targetPoint" />
          </mxGeometry>
        </mxCell>
        <mxCell id="7jKar9Oq4WMOaTZj31np-83" value="save" style="html=1;verticalAlign=bottom;endArrow=block;curved=0;rounded=0;" edge="1" parent="1">
          <mxGeometry width="80" relative="1" as="geometry">
            <mxPoint x="449.5" y="860.0000000000001" as="sourcePoint" />
            <mxPoint x="569.5" y="860.32" as="targetPoint" />
          </mxGeometry>
        </mxCell>
        <mxCell id="7jKar9Oq4WMOaTZj31np-84" value="&lt;div&gt;&lt;font style=&quot;font-size: 10px;&quot;&gt;- customer&amp;nbsp; (inactive)&lt;/font&gt;&lt;/div&gt;" style="text;strokeColor=none;fillColor=none;align=left;verticalAlign=top;spacingLeft=4;spacingRight=4;overflow=hidden;rotatable=0;points=[[0,0.5],[1,0.5]];portConstraint=eastwest;whiteSpace=wrap;html=1;" vertex="1" parent="1">
          <mxGeometry x="450" y="860" width="120" height="30" as="geometry" />
        </mxCell>
        <mxCell id="7jKar9Oq4WMOaTZj31np-85" value="save" style="html=1;verticalAlign=bottom;endArrow=block;curved=0;rounded=0;" edge="1" parent="1">
          <mxGeometry width="80" relative="1" as="geometry">
            <mxPoint x="589" y="870.0000000000001" as="sourcePoint" />
            <mxPoint x="709" y="870.32" as="targetPoint" />
          </mxGeometry>
        </mxCell>
        <mxCell id="7jKar9Oq4WMOaTZj31np-86" value="Error(404)" style="html=1;verticalAlign=bottom;endArrow=open;dashed=1;endSize=8;curved=0;rounded=0;" edge="1" parent="1">
          <mxGeometry relative="1" as="geometry">
            <mxPoint x="709" y="939.9999999999999" as="sourcePoint" />
            <mxPoint x="126.44444444444457" y="939.9999999999999" as="targetPoint" />
          </mxGeometry>
        </mxCell>
      </root>
    </mxGraphModel>
  </diagram>
  <diagram name="service-product" id="0ZNoGy895mCf0tlYqk-a">
    <mxGraphModel dx="1098" dy="646" grid="1" gridSize="10" guides="1" tooltips="1" connect="1" arrows="1" fold="1" page="1" pageScale="1" pageWidth="827" pageHeight="1169" math="0" shadow="0">
      <root>
        <mxCell id="i5kDU8UaZPKuQENaI35P-0" />
        <mxCell id="i5kDU8UaZPKuQENaI35P-1" parent="i5kDU8UaZPKuQENaI35P-0" />
        <mxCell id="i5kDU8UaZPKuQENaI35P-2" value="Api" style="shape=umlLifeline;perimeter=lifelinePerimeter;whiteSpace=wrap;html=1;container=1;dropTarget=0;collapsible=0;recursiveResize=0;outlineConnect=0;portConstraint=eastwest;newEdgeStyle={&quot;curved&quot;:0,&quot;rounded&quot;:0};" vertex="1" parent="i5kDU8UaZPKuQENaI35P-1">
          <mxGeometry x="240" y="40" width="100" height="1070" as="geometry" />
        </mxCell>
        <mxCell id="i5kDU8UaZPKuQENaI35P-3" value="" style="html=1;points=[[0,0,0,0,5],[0,1,0,0,-5],[1,0,0,0,5],[1,1,0,0,-5]];perimeter=orthogonalPerimeter;outlineConnect=0;targetShapes=umlLifeline;portConstraint=eastwest;newEdgeStyle={&quot;curved&quot;:0,&quot;rounded&quot;:0};" vertex="1" parent="i5kDU8UaZPKuQENaI35P-2">
          <mxGeometry x="45" y="70" width="10" height="170" as="geometry" />
        </mxCell>
        <mxCell id="i5kDU8UaZPKuQENaI35P-4" value="" style="html=1;points=[[0,0,0,0,5],[0,1,0,0,-5],[1,0,0,0,5],[1,1,0,0,-5]];perimeter=orthogonalPerimeter;outlineConnect=0;targetShapes=umlLifeline;portConstraint=eastwest;newEdgeStyle={&quot;curved&quot;:0,&quot;rounded&quot;:0};" vertex="1" parent="i5kDU8UaZPKuQENaI35P-2">
          <mxGeometry x="45" y="260" width="10" height="130" as="geometry" />
        </mxCell>
        <mxCell id="i5kDU8UaZPKuQENaI35P-5" value="" style="html=1;points=[[0,0,0,0,5],[0,1,0,0,-5],[1,0,0,0,5],[1,1,0,0,-5]];perimeter=orthogonalPerimeter;outlineConnect=0;targetShapes=umlLifeline;portConstraint=eastwest;newEdgeStyle={&quot;curved&quot;:0,&quot;rounded&quot;:0};" vertex="1" parent="i5kDU8UaZPKuQENaI35P-2">
          <mxGeometry x="45" y="430" width="10" height="220" as="geometry" />
        </mxCell>
        <mxCell id="i5kDU8UaZPKuQENaI35P-6" value="" style="html=1;points=[[0,0,0,0,5],[0,1,0,0,-5],[1,0,0,0,5],[1,1,0,0,-5]];perimeter=orthogonalPerimeter;outlineConnect=0;targetShapes=umlLifeline;portConstraint=eastwest;newEdgeStyle={&quot;curved&quot;:0,&quot;rounded&quot;:0};" vertex="1" parent="i5kDU8UaZPKuQENaI35P-2">
          <mxGeometry x="45" y="700" width="10" height="220" as="geometry" />
        </mxCell>
        <mxCell id="i5kDU8UaZPKuQENaI35P-7" value="Data Base" style="shape=umlLifeline;perimeter=lifelinePerimeter;whiteSpace=wrap;html=1;container=1;dropTarget=0;collapsible=0;recursiveResize=0;outlineConnect=0;portConstraint=eastwest;newEdgeStyle={&quot;curved&quot;:0,&quot;rounded&quot;:0};" vertex="1" parent="i5kDU8UaZPKuQENaI35P-1">
          <mxGeometry x="663" y="40" width="100" height="1070" as="geometry" />
        </mxCell>
        <mxCell id="i5kDU8UaZPKuQENaI35P-8" value="Repository" style="shape=umlLifeline;perimeter=lifelinePerimeter;whiteSpace=wrap;html=1;container=1;dropTarget=0;collapsible=0;recursiveResize=0;outlineConnect=0;portConstraint=eastwest;newEdgeStyle={&quot;curved&quot;:0,&quot;rounded&quot;:0};" vertex="1" parent="i5kDU8UaZPKuQENaI35P-1">
          <mxGeometry x="530" y="40" width="100" height="1070" as="geometry" />
        </mxCell>
        <mxCell id="i5kDU8UaZPKuQENaI35P-9" value="" style="html=1;points=[[0,0,0,0,5],[0,1,0,0,-5],[1,0,0,0,5],[1,1,0,0,-5]];perimeter=orthogonalPerimeter;outlineConnect=0;targetShapes=umlLifeline;portConstraint=eastwest;newEdgeStyle={&quot;curved&quot;:0,&quot;rounded&quot;:0};" vertex="1" parent="i5kDU8UaZPKuQENaI35P-8">
          <mxGeometry x="45" y="70" width="10" height="170" as="geometry" />
        </mxCell>
        <mxCell id="i5kDU8UaZPKuQENaI35P-10" value="" style="html=1;points=[[0,0,0,0,5],[0,1,0,0,-5],[1,0,0,0,5],[1,1,0,0,-5]];perimeter=orthogonalPerimeter;outlineConnect=0;targetShapes=umlLifeline;portConstraint=eastwest;newEdgeStyle={&quot;curved&quot;:0,&quot;rounded&quot;:0};" vertex="1" parent="i5kDU8UaZPKuQENaI35P-8">
          <mxGeometry x="45" y="260" width="10" height="130" as="geometry" />
        </mxCell>
        <mxCell id="i5kDU8UaZPKuQENaI35P-11" value="" style="html=1;points=[[0,0,0,0,5],[0,1,0,0,-5],[1,0,0,0,5],[1,1,0,0,-5]];perimeter=orthogonalPerimeter;outlineConnect=0;targetShapes=umlLifeline;portConstraint=eastwest;newEdgeStyle={&quot;curved&quot;:0,&quot;rounded&quot;:0};" vertex="1" parent="i5kDU8UaZPKuQENaI35P-8">
          <mxGeometry x="45" y="430" width="10" height="220" as="geometry" />
        </mxCell>
        <mxCell id="i5kDU8UaZPKuQENaI35P-12" value="" style="html=1;points=[[0,0,0,0,5],[0,1,0,0,-5],[1,0,0,0,5],[1,1,0,0,-5]];perimeter=orthogonalPerimeter;outlineConnect=0;targetShapes=umlLifeline;portConstraint=eastwest;newEdgeStyle={&quot;curved&quot;:0,&quot;rounded&quot;:0};" vertex="1" parent="i5kDU8UaZPKuQENaI35P-8">
          <mxGeometry x="45" y="700" width="10" height="220" as="geometry" />
        </mxCell>
        <mxCell id="i5kDU8UaZPKuQENaI35P-13" value="Service" style="shape=umlLifeline;perimeter=lifelinePerimeter;whiteSpace=wrap;html=1;container=1;dropTarget=0;collapsible=0;recursiveResize=0;outlineConnect=0;portConstraint=eastwest;newEdgeStyle={&quot;curved&quot;:0,&quot;rounded&quot;:0};" vertex="1" parent="i5kDU8UaZPKuQENaI35P-1">
          <mxGeometry x="390" y="40" width="100" height="1070" as="geometry" />
        </mxCell>
        <mxCell id="i5kDU8UaZPKuQENaI35P-14" value="" style="html=1;points=[[0,0,0,0,5],[0,1,0,0,-5],[1,0,0,0,5],[1,1,0,0,-5]];perimeter=orthogonalPerimeter;outlineConnect=0;targetShapes=umlLifeline;portConstraint=eastwest;newEdgeStyle={&quot;curved&quot;:0,&quot;rounded&quot;:0};" vertex="1" parent="i5kDU8UaZPKuQENaI35P-13">
          <mxGeometry x="45" y="70" width="10" height="170" as="geometry" />
        </mxCell>
        <mxCell id="i5kDU8UaZPKuQENaI35P-15" value="" style="html=1;points=[[0,0,0,0,5],[0,1,0,0,-5],[1,0,0,0,5],[1,1,0,0,-5]];perimeter=orthogonalPerimeter;outlineConnect=0;targetShapes=umlLifeline;portConstraint=eastwest;newEdgeStyle={&quot;curved&quot;:0,&quot;rounded&quot;:0};" vertex="1" parent="i5kDU8UaZPKuQENaI35P-13">
          <mxGeometry x="45" y="260" width="10" height="130" as="geometry" />
        </mxCell>
        <mxCell id="i5kDU8UaZPKuQENaI35P-16" value="" style="html=1;points=[[0,0,0,0,5],[0,1,0,0,-5],[1,0,0,0,5],[1,1,0,0,-5]];perimeter=orthogonalPerimeter;outlineConnect=0;targetShapes=umlLifeline;portConstraint=eastwest;newEdgeStyle={&quot;curved&quot;:0,&quot;rounded&quot;:0};" vertex="1" parent="i5kDU8UaZPKuQENaI35P-13">
          <mxGeometry x="45" y="430" width="10" height="220" as="geometry" />
        </mxCell>
        <mxCell id="i5kDU8UaZPKuQENaI35P-17" style="edgeStyle=orthogonalEdgeStyle;rounded=0;orthogonalLoop=1;jettySize=auto;html=1;curved=0;" edge="1" parent="i5kDU8UaZPKuQENaI35P-13" source="i5kDU8UaZPKuQENaI35P-16" target="i5kDU8UaZPKuQENaI35P-16">
          <mxGeometry relative="1" as="geometry">
            <Array as="points">
              <mxPoint x="10" y="540" />
            </Array>
          </mxGeometry>
        </mxCell>
        <mxCell id="i5kDU8UaZPKuQENaI35P-18" value="" style="html=1;points=[[0,0,0,0,5],[0,1,0,0,-5],[1,0,0,0,5],[1,1,0,0,-5]];perimeter=orthogonalPerimeter;outlineConnect=0;targetShapes=umlLifeline;portConstraint=eastwest;newEdgeStyle={&quot;curved&quot;:0,&quot;rounded&quot;:0};" vertex="1" parent="i5kDU8UaZPKuQENaI35P-13">
          <mxGeometry x="45" y="700" width="10" height="220" as="geometry" />
        </mxCell>
        <mxCell id="i5kDU8UaZPKuQENaI35P-19" value="ApiClient" style="shape=umlLifeline;perimeter=lifelinePerimeter;whiteSpace=wrap;html=1;container=1;dropTarget=0;collapsible=0;recursiveResize=0;outlineConnect=0;portConstraint=eastwest;newEdgeStyle={&quot;curved&quot;:0,&quot;rounded&quot;:0};" vertex="1" parent="i5kDU8UaZPKuQENaI35P-1">
          <mxGeometry x="80" y="40" width="100" height="1070" as="geometry" />
        </mxCell>
        <mxCell id="i5kDU8UaZPKuQENaI35P-20" value="POST:&amp;nbsp;&lt;span style=&quot;background-color: light-dark(#ffffff, var(--ge-dark-color, #121212)); color: light-dark(rgb(0, 0, 0), rgb(255, 255, 255));&quot;&gt;api/customers&lt;/span&gt;" style="html=1;verticalAlign=bottom;startArrow=oval;endArrow=block;startSize=8;curved=0;rounded=0;entryX=0;entryY=0;entryDx=0;entryDy=5;" edge="1" parent="i5kDU8UaZPKuQENaI35P-1" target="i5kDU8UaZPKuQENaI35P-3">
          <mxGeometry x="-0.001" relative="1" as="geometry">
            <mxPoint x="130" y="115" as="sourcePoint" />
            <mxPoint as="offset" />
          </mxGeometry>
        </mxCell>
        <mxCell id="i5kDU8UaZPKuQENaI35P-21" value="&lt;font style=&quot;font-size: 10px;&quot;&gt;- customerRequest&lt;/font&gt;" style="text;strokeColor=none;fillColor=none;align=left;verticalAlign=top;spacingLeft=4;spacingRight=4;overflow=hidden;rotatable=0;points=[[0,0.5],[1,0.5]];portConstraint=eastwest;whiteSpace=wrap;html=1;" vertex="1" parent="i5kDU8UaZPKuQENaI35P-1">
          <mxGeometry x="150" y="116" width="99" height="28" as="geometry" />
        </mxCell>
        <mxCell id="i5kDU8UaZPKuQENaI35P-22" value="createCustomer" style="html=1;verticalAlign=bottom;endArrow=block;curved=0;rounded=0;" edge="1" parent="i5kDU8UaZPKuQENaI35P-1" target="i5kDU8UaZPKuQENaI35P-14">
          <mxGeometry width="80" relative="1" as="geometry">
            <mxPoint x="300" y="129.68" as="sourcePoint" />
            <mxPoint x="380" y="129.68" as="targetPoint" />
          </mxGeometry>
        </mxCell>
        <mxCell id="i5kDU8UaZPKuQENaI35P-23" value="&lt;font style=&quot;font-size: 10px;&quot;&gt;- customerRequest&lt;/font&gt;" style="text;strokeColor=none;fillColor=none;align=left;verticalAlign=top;spacingLeft=4;spacingRight=4;overflow=hidden;rotatable=0;points=[[0,0.5],[1,0.5]];portConstraint=eastwest;whiteSpace=wrap;html=1;" vertex="1" parent="i5kDU8UaZPKuQENaI35P-1">
          <mxGeometry x="314.5" y="126" width="99" height="28" as="geometry" />
        </mxCell>
        <mxCell id="i5kDU8UaZPKuQENaI35P-24" value="save" style="html=1;verticalAlign=bottom;endArrow=block;curved=0;rounded=0;" edge="1" parent="i5kDU8UaZPKuQENaI35P-1">
          <mxGeometry width="80" relative="1" as="geometry">
            <mxPoint x="450" y="139.68" as="sourcePoint" />
            <mxPoint x="570" y="140" as="targetPoint" />
          </mxGeometry>
        </mxCell>
        <mxCell id="i5kDU8UaZPKuQENaI35P-25" value="save" style="html=1;verticalAlign=bottom;endArrow=block;curved=0;rounded=0;" edge="1" parent="i5kDU8UaZPKuQENaI35P-1">
          <mxGeometry width="80" relative="1" as="geometry">
            <mxPoint x="589" y="144" as="sourcePoint" />
            <mxPoint x="709" y="144.32" as="targetPoint" />
          </mxGeometry>
        </mxCell>
        <mxCell id="i5kDU8UaZPKuQENaI35P-26" value="Success (200)" style="html=1;verticalAlign=bottom;endArrow=open;dashed=1;endSize=8;curved=0;rounded=0;" edge="1" parent="i5kDU8UaZPKuQENaI35P-1">
          <mxGeometry relative="1" as="geometry">
            <mxPoint x="712.5" y="179.9999999999999" as="sourcePoint" />
            <mxPoint x="129.94444444444457" y="179.9999999999999" as="targetPoint" />
          </mxGeometry>
        </mxCell>
        <mxCell id="i5kDU8UaZPKuQENaI35P-27" value="Error (404)" style="html=1;verticalAlign=bottom;endArrow=open;dashed=1;endSize=8;curved=0;rounded=0;" edge="1" parent="i5kDU8UaZPKuQENaI35P-1">
          <mxGeometry relative="1" as="geometry">
            <mxPoint x="712.56" y="229.9999999999999" as="sourcePoint" />
            <mxPoint x="130.00444444444457" y="229.9999999999999" as="targetPoint" />
          </mxGeometry>
        </mxCell>
        <mxCell id="i5kDU8UaZPKuQENaI35P-28" value="GET: api/customers" style="html=1;verticalAlign=bottom;startArrow=oval;endArrow=block;startSize=8;curved=0;rounded=0;entryX=0;entryY=0;entryDx=0;entryDy=5;" edge="1" parent="i5kDU8UaZPKuQENaI35P-1">
          <mxGeometry x="-0.001" relative="1" as="geometry">
            <mxPoint x="130" y="340" as="sourcePoint" />
            <mxPoint x="285" y="340" as="targetPoint" />
            <mxPoint as="offset" />
          </mxGeometry>
        </mxCell>
        <mxCell id="i5kDU8UaZPKuQENaI35P-29" value="getCustomers" style="html=1;verticalAlign=bottom;endArrow=block;curved=0;rounded=0;" edge="1" parent="i5kDU8UaZPKuQENaI35P-1">
          <mxGeometry width="80" relative="1" as="geometry">
            <mxPoint x="300" y="354.68" as="sourcePoint" />
            <mxPoint x="435" y="355" as="targetPoint" />
          </mxGeometry>
        </mxCell>
        <mxCell id="i5kDU8UaZPKuQENaI35P-31" value="findAll" style="html=1;verticalAlign=bottom;endArrow=block;curved=0;rounded=0;" edge="1" parent="i5kDU8UaZPKuQENaI35P-1">
          <mxGeometry width="80" relative="1" as="geometry">
            <mxPoint x="450" y="364.68" as="sourcePoint" />
            <mxPoint x="570" y="365" as="targetPoint" />
          </mxGeometry>
        </mxCell>
        <mxCell id="i5kDU8UaZPKuQENaI35P-32" value="findAll" style="html=1;verticalAlign=bottom;endArrow=block;curved=0;rounded=0;" edge="1" parent="i5kDU8UaZPKuQENaI35P-1">
          <mxGeometry width="80" relative="1" as="geometry">
            <mxPoint x="589" y="369" as="sourcePoint" />
            <mxPoint x="709" y="369.32" as="targetPoint" />
          </mxGeometry>
        </mxCell>
        <mxCell id="i5kDU8UaZPKuQENaI35P-33" value="&lt;font style=&quot;font-size: 10px;&quot;&gt;- customer (active)&lt;/font&gt;" style="text;strokeColor=none;fillColor=none;align=left;verticalAlign=top;spacingLeft=4;spacingRight=4;overflow=hidden;rotatable=0;points=[[0,0.5],[1,0.5]];portConstraint=eastwest;whiteSpace=wrap;html=1;" vertex="1" parent="i5kDU8UaZPKuQENaI35P-1">
          <mxGeometry x="460" y="136" width="99" height="28" as="geometry" />
        </mxCell>
        <mxCell id="i5kDU8UaZPKuQENaI35P-34" value="&lt;font style=&quot;font-size: 10px;&quot;&gt;- customer&lt;/font&gt;" style="text;strokeColor=none;fillColor=none;align=left;verticalAlign=top;spacingLeft=4;spacingRight=4;overflow=hidden;rotatable=0;points=[[0,0.5],[1,0.5]];portConstraint=eastwest;whiteSpace=wrap;html=1;" vertex="1" parent="i5kDU8UaZPKuQENaI35P-1">
          <mxGeometry x="610" y="136" width="99" height="28" as="geometry" />
        </mxCell>
        <mxCell id="i5kDU8UaZPKuQENaI35P-35" value="Success (200)" style="html=1;verticalAlign=bottom;endArrow=open;dashed=1;endSize=8;curved=0;rounded=0;" edge="1" parent="i5kDU8UaZPKuQENaI35P-1">
          <mxGeometry relative="1" as="geometry">
            <mxPoint x="708.94" y="399.9999999999999" as="sourcePoint" />
            <mxPoint x="126.38444444444457" y="399.9999999999999" as="targetPoint" />
          </mxGeometry>
        </mxCell>
        <mxCell id="i5kDU8UaZPKuQENaI35P-36" value="PUT: api/customers/{customerId}" style="html=1;verticalAlign=bottom;startArrow=oval;endArrow=block;startSize=8;curved=0;rounded=0;entryX=0;entryY=0;entryDx=0;entryDy=5;" edge="1" parent="i5kDU8UaZPKuQENaI35P-1">
          <mxGeometry x="-0.001" relative="1" as="geometry">
            <mxPoint x="130" y="510" as="sourcePoint" />
            <mxPoint x="285" y="510" as="targetPoint" />
            <mxPoint as="offset" />
          </mxGeometry>
        </mxCell>
        <mxCell id="i5kDU8UaZPKuQENaI35P-37" value="updateCustomer" style="html=1;verticalAlign=bottom;endArrow=block;curved=0;rounded=0;" edge="1" parent="i5kDU8UaZPKuQENaI35P-1">
          <mxGeometry width="80" relative="1" as="geometry">
            <mxPoint x="300" y="524.6800000000001" as="sourcePoint" />
            <mxPoint x="435" y="525" as="targetPoint" />
          </mxGeometry>
        </mxCell>
        <mxCell id="i5kDU8UaZPKuQENaI35P-38" value="&lt;font style=&quot;font-size: 10px;&quot;&gt;- customerRequest&lt;/font&gt;&lt;div&gt;&lt;font style=&quot;font-size: 10px;&quot;&gt;- customerId&lt;/font&gt;&lt;/div&gt;" style="text;strokeColor=none;fillColor=none;align=left;verticalAlign=top;spacingLeft=4;spacingRight=4;overflow=hidden;rotatable=0;points=[[0,0.5],[1,0.5]];portConstraint=eastwest;whiteSpace=wrap;html=1;" vertex="1" parent="i5kDU8UaZPKuQENaI35P-1">
          <mxGeometry x="314.5" y="521" width="99" height="39" as="geometry" />
        </mxCell>
        <mxCell id="i5kDU8UaZPKuQENaI35P-39" value="findById" style="html=1;verticalAlign=bottom;endArrow=block;curved=0;rounded=0;" edge="1" parent="i5kDU8UaZPKuQENaI35P-1">
          <mxGeometry width="80" relative="1" as="geometry">
            <mxPoint x="450" y="534.6800000000001" as="sourcePoint" />
            <mxPoint x="570" y="535" as="targetPoint" />
          </mxGeometry>
        </mxCell>
        <mxCell id="i5kDU8UaZPKuQENaI35P-40" value="findById" style="html=1;verticalAlign=bottom;endArrow=block;curved=0;rounded=0;" edge="1" parent="i5kDU8UaZPKuQENaI35P-1">
          <mxGeometry width="80" relative="1" as="geometry">
            <mxPoint x="589" y="539" as="sourcePoint" />
            <mxPoint x="709" y="539.3199999999999" as="targetPoint" />
          </mxGeometry>
        </mxCell>
        <mxCell id="i5kDU8UaZPKuQENaI35P-41" value="Success (200)" style="html=1;verticalAlign=bottom;endArrow=open;dashed=1;endSize=8;curved=0;rounded=0;" edge="1" parent="i5kDU8UaZPKuQENaI35P-1">
          <mxGeometry relative="1" as="geometry">
            <mxPoint x="709.56" y="641.9999999999999" as="sourcePoint" />
            <mxPoint x="127.00444444444457" y="641.9999999999999" as="targetPoint" />
          </mxGeometry>
        </mxCell>
        <mxCell id="i5kDU8UaZPKuQENaI35P-42" value="&lt;font style=&quot;font-size: 10px;&quot;&gt;- customerRequest&lt;/font&gt;&lt;div&gt;&lt;font style=&quot;font-size: 10px;&quot;&gt;- customerId&lt;/font&gt;&lt;/div&gt;" style="text;strokeColor=none;fillColor=none;align=left;verticalAlign=top;spacingLeft=4;spacingRight=4;overflow=hidden;rotatable=0;points=[[0,0.5],[1,0.5]];portConstraint=eastwest;whiteSpace=wrap;html=1;" vertex="1" parent="i5kDU8UaZPKuQENaI35P-1">
          <mxGeometry x="150" y="510" width="99" height="40" as="geometry" />
        </mxCell>
        <mxCell id="i5kDU8UaZPKuQENaI35P-43" value="&lt;div&gt;&lt;font style=&quot;font-size: 10px;&quot;&gt;- customerId&lt;/font&gt;&lt;/div&gt;" style="text;strokeColor=none;fillColor=none;align=left;verticalAlign=top;spacingLeft=4;spacingRight=4;overflow=hidden;rotatable=0;points=[[0,0.5],[1,0.5]];portConstraint=eastwest;whiteSpace=wrap;html=1;" vertex="1" parent="i5kDU8UaZPKuQENaI35P-1">
          <mxGeometry x="460" y="530" width="99" height="30" as="geometry" />
        </mxCell>
        <mxCell id="i5kDU8UaZPKuQENaI35P-44" value="success" style="html=1;verticalAlign=bottom;endArrow=open;dashed=1;endSize=8;curved=0;rounded=0;" edge="1" parent="i5kDU8UaZPKuQENaI35P-1" source="i5kDU8UaZPKuQENaI35P-7">
          <mxGeometry relative="1" as="geometry">
            <mxPoint x="663" y="572" as="sourcePoint" />
            <mxPoint x="583" y="572" as="targetPoint" />
          </mxGeometry>
        </mxCell>
        <mxCell id="i5kDU8UaZPKuQENaI35P-45" value="success" style="html=1;verticalAlign=bottom;endArrow=open;dashed=1;endSize=8;curved=0;rounded=0;" edge="1" parent="i5kDU8UaZPKuQENaI35P-1">
          <mxGeometry relative="1" as="geometry">
            <mxPoint x="574.5" y="570" as="sourcePoint" />
            <mxPoint x="444.5" y="570" as="targetPoint" />
          </mxGeometry>
        </mxCell>
        <mxCell id="i5kDU8UaZPKuQENaI35P-46" value="save" style="html=1;verticalAlign=bottom;endArrow=block;curved=0;rounded=0;" edge="1" parent="i5kDU8UaZPKuQENaI35P-1">
          <mxGeometry width="80" relative="1" as="geometry">
            <mxPoint x="449.5" y="600.0000000000001" as="sourcePoint" />
            <mxPoint x="569.5" y="600.32" as="targetPoint" />
          </mxGeometry>
        </mxCell>
        <mxCell id="i5kDU8UaZPKuQENaI35P-47" value="&lt;div&gt;&lt;font style=&quot;font-size: 10px;&quot;&gt;- customer&lt;/font&gt;&lt;/div&gt;" style="text;strokeColor=none;fillColor=none;align=left;verticalAlign=top;spacingLeft=4;spacingRight=4;overflow=hidden;rotatable=0;points=[[0,0.5],[1,0.5]];portConstraint=eastwest;whiteSpace=wrap;html=1;" vertex="1" parent="i5kDU8UaZPKuQENaI35P-1">
          <mxGeometry x="450" y="600" width="99" height="30" as="geometry" />
        </mxCell>
        <mxCell id="i5kDU8UaZPKuQENaI35P-48" value="save" style="html=1;verticalAlign=bottom;endArrow=block;curved=0;rounded=0;" edge="1" parent="i5kDU8UaZPKuQENaI35P-1">
          <mxGeometry width="80" relative="1" as="geometry">
            <mxPoint x="589" y="610.0000000000001" as="sourcePoint" />
            <mxPoint x="709" y="610.32" as="targetPoint" />
          </mxGeometry>
        </mxCell>
        <mxCell id="i5kDU8UaZPKuQENaI35P-49" value="Error(404)" style="html=1;verticalAlign=bottom;endArrow=open;dashed=1;endSize=8;curved=0;rounded=0;" edge="1" parent="i5kDU8UaZPKuQENaI35P-1">
          <mxGeometry relative="1" as="geometry">
            <mxPoint x="709" y="679.9999999999999" as="sourcePoint" />
            <mxPoint x="126.44444444444457" y="679.9999999999999" as="targetPoint" />
          </mxGeometry>
        </mxCell>
        <mxCell id="i5kDU8UaZPKuQENaI35P-50" style="edgeStyle=orthogonalEdgeStyle;rounded=0;orthogonalLoop=1;jettySize=auto;html=1;curved=0;" edge="1" parent="i5kDU8UaZPKuQENaI35P-1">
          <mxGeometry relative="1" as="geometry">
            <mxPoint x="435" y="830" as="sourcePoint" />
            <mxPoint x="435" y="850" as="targetPoint" />
            <Array as="points">
              <mxPoint x="400" y="840" />
            </Array>
          </mxGeometry>
        </mxCell>
        <mxCell id="i5kDU8UaZPKuQENaI35P-51" value="PUT: api/customers/{customerId}" style="html=1;verticalAlign=bottom;startArrow=oval;endArrow=block;startSize=8;curved=0;rounded=0;entryX=0;entryY=0;entryDx=0;entryDy=5;" edge="1" parent="i5kDU8UaZPKuQENaI35P-1">
          <mxGeometry x="-0.001" relative="1" as="geometry">
            <mxPoint x="130" y="770" as="sourcePoint" />
            <mxPoint x="285" y="770" as="targetPoint" />
            <mxPoint as="offset" />
          </mxGeometry>
        </mxCell>
        <mxCell id="i5kDU8UaZPKuQENaI35P-52" value="deleteCustomer" style="html=1;verticalAlign=bottom;endArrow=block;curved=0;rounded=0;" edge="1" parent="i5kDU8UaZPKuQENaI35P-1">
          <mxGeometry width="80" relative="1" as="geometry">
            <mxPoint x="300" y="784.6800000000001" as="sourcePoint" />
            <mxPoint x="435" y="785" as="targetPoint" />
          </mxGeometry>
        </mxCell>
        <mxCell id="i5kDU8UaZPKuQENaI35P-53" value="&lt;div&gt;&lt;font style=&quot;font-size: 10px;&quot;&gt;- customerId&lt;/font&gt;&lt;/div&gt;" style="text;strokeColor=none;fillColor=none;align=left;verticalAlign=top;spacingLeft=4;spacingRight=4;overflow=hidden;rotatable=0;points=[[0,0.5],[1,0.5]];portConstraint=eastwest;whiteSpace=wrap;html=1;" vertex="1" parent="i5kDU8UaZPKuQENaI35P-1">
          <mxGeometry x="314.5" y="781" width="99" height="39" as="geometry" />
        </mxCell>
        <mxCell id="i5kDU8UaZPKuQENaI35P-54" value="findById" style="html=1;verticalAlign=bottom;endArrow=block;curved=0;rounded=0;" edge="1" parent="i5kDU8UaZPKuQENaI35P-1">
          <mxGeometry width="80" relative="1" as="geometry">
            <mxPoint x="450" y="794.6800000000001" as="sourcePoint" />
            <mxPoint x="570" y="795" as="targetPoint" />
          </mxGeometry>
        </mxCell>
        <mxCell id="i5kDU8UaZPKuQENaI35P-55" value="findById" style="html=1;verticalAlign=bottom;endArrow=block;curved=0;rounded=0;" edge="1" parent="i5kDU8UaZPKuQENaI35P-1">
          <mxGeometry width="80" relative="1" as="geometry">
            <mxPoint x="589" y="799" as="sourcePoint" />
            <mxPoint x="709" y="799.3199999999999" as="targetPoint" />
          </mxGeometry>
        </mxCell>
        <mxCell id="i5kDU8UaZPKuQENaI35P-56" value="Success (200)" style="html=1;verticalAlign=bottom;endArrow=open;dashed=1;endSize=8;curved=0;rounded=0;" edge="1" parent="i5kDU8UaZPKuQENaI35P-1">
          <mxGeometry relative="1" as="geometry">
            <mxPoint x="709.56" y="901.9999999999999" as="sourcePoint" />
            <mxPoint x="127.00444444444457" y="901.9999999999999" as="targetPoint" />
          </mxGeometry>
        </mxCell>
        <mxCell id="i5kDU8UaZPKuQENaI35P-57" value="&lt;div&gt;&lt;font style=&quot;font-size: 10px;&quot;&gt;- customerId&lt;/font&gt;&lt;/div&gt;" style="text;strokeColor=none;fillColor=none;align=left;verticalAlign=top;spacingLeft=4;spacingRight=4;overflow=hidden;rotatable=0;points=[[0,0.5],[1,0.5]];portConstraint=eastwest;whiteSpace=wrap;html=1;" vertex="1" parent="i5kDU8UaZPKuQENaI35P-1">
          <mxGeometry x="150" y="770" width="99" height="40" as="geometry" />
        </mxCell>
        <mxCell id="i5kDU8UaZPKuQENaI35P-58" value="&lt;div&gt;&lt;font style=&quot;font-size: 10px;&quot;&gt;- customerId&lt;/font&gt;&lt;/div&gt;" style="text;strokeColor=none;fillColor=none;align=left;verticalAlign=top;spacingLeft=4;spacingRight=4;overflow=hidden;rotatable=0;points=[[0,0.5],[1,0.5]];portConstraint=eastwest;whiteSpace=wrap;html=1;" vertex="1" parent="i5kDU8UaZPKuQENaI35P-1">
          <mxGeometry x="460" y="790" width="99" height="30" as="geometry" />
        </mxCell>
        <mxCell id="i5kDU8UaZPKuQENaI35P-59" value="success" style="html=1;verticalAlign=bottom;endArrow=open;dashed=1;endSize=8;curved=0;rounded=0;" edge="1" parent="i5kDU8UaZPKuQENaI35P-1">
          <mxGeometry relative="1" as="geometry">
            <mxPoint x="713" y="832" as="sourcePoint" />
            <mxPoint x="583" y="832" as="targetPoint" />
          </mxGeometry>
        </mxCell>
        <mxCell id="i5kDU8UaZPKuQENaI35P-60" value="success" style="html=1;verticalAlign=bottom;endArrow=open;dashed=1;endSize=8;curved=0;rounded=0;" edge="1" parent="i5kDU8UaZPKuQENaI35P-1">
          <mxGeometry relative="1" as="geometry">
            <mxPoint x="574.5" y="830" as="sourcePoint" />
            <mxPoint x="444.5" y="830" as="targetPoint" />
          </mxGeometry>
        </mxCell>
        <mxCell id="i5kDU8UaZPKuQENaI35P-61" value="save" style="html=1;verticalAlign=bottom;endArrow=block;curved=0;rounded=0;" edge="1" parent="i5kDU8UaZPKuQENaI35P-1">
          <mxGeometry width="80" relative="1" as="geometry">
            <mxPoint x="449.5" y="860.0000000000001" as="sourcePoint" />
            <mxPoint x="569.5" y="860.32" as="targetPoint" />
          </mxGeometry>
        </mxCell>
        <mxCell id="i5kDU8UaZPKuQENaI35P-62" value="&lt;div&gt;&lt;font style=&quot;font-size: 10px;&quot;&gt;- customer&amp;nbsp; (inactive)&lt;/font&gt;&lt;/div&gt;" style="text;strokeColor=none;fillColor=none;align=left;verticalAlign=top;spacingLeft=4;spacingRight=4;overflow=hidden;rotatable=0;points=[[0,0.5],[1,0.5]];portConstraint=eastwest;whiteSpace=wrap;html=1;" vertex="1" parent="i5kDU8UaZPKuQENaI35P-1">
          <mxGeometry x="450" y="860" width="120" height="30" as="geometry" />
        </mxCell>
        <mxCell id="i5kDU8UaZPKuQENaI35P-63" value="save" style="html=1;verticalAlign=bottom;endArrow=block;curved=0;rounded=0;" edge="1" parent="i5kDU8UaZPKuQENaI35P-1">
          <mxGeometry width="80" relative="1" as="geometry">
            <mxPoint x="589" y="870.0000000000001" as="sourcePoint" />
            <mxPoint x="709" y="870.32" as="targetPoint" />
          </mxGeometry>
        </mxCell>
        <mxCell id="i5kDU8UaZPKuQENaI35P-64" value="Error(404)" style="html=1;verticalAlign=bottom;endArrow=open;dashed=1;endSize=8;curved=0;rounded=0;" edge="1" parent="i5kDU8UaZPKuQENaI35P-1">
          <mxGeometry relative="1" as="geometry">
            <mxPoint x="709" y="939.9999999999999" as="sourcePoint" />
            <mxPoint x="126.44444444444457" y="939.9999999999999" as="targetPoint" />
          </mxGeometry>
        </mxCell>
      </root>
    </mxGraphModel>
  </diagram>
</mxfile>
